<?xml version="1.0" encoding="utf-8"?>
<!-- Generator: Adobe Illustrator 22.0.1, SVG Export Plug-In . SVG Version: 6.00 Build 0)  -->
<svg version="1.1" id="Layer_1" xmlns="http://www.w3.org/2000/svg" xmlns:xlink="http://www.w3.org/1999/xlink" x="0px" y="0px"
	 viewBox="0 0 36 46" style="enable-background:new 0 0 36 46;" xml:space="preserve">
<style type="text/css">
	.st0{fill:url(#SVGID_1_);}
	.st1{fill:url(#SVGID_2_);}
	.st2{fill:url(#SVGID_3_);}
	.st3{fill:url(#SVGID_4_);}
	.st4{fill:url(#SVGID_5_);}
	.st5{fill:url(#SVGID_6_);}
	.st6{fill:url(#SVGID_7_);}
	.st7{fill:url(#SVGID_8_);}
	.st8{fill:url(#SVGID_9_);}
	.st9{fill:url(#SVGID_10_);}
	.st10{fill:url(#SVGID_11_);}
	.st11{fill:url(#SVGID_12_);}
	.st12{fill:url(#SVGID_13_);}
	.st13{fill:url(#SVGID_14_);}
	.st14{fill:url(#SVGID_15_);}
	.st15{fill:url(#SVGID_16_);}
	.st16{fill:url(#SVGID_17_);}
	.st17{fill:url(#SVGID_18_);}
</style>
<g>
	<g>
		<linearGradient id="SVGID_1_" gradientUnits="userSpaceOnUse" x1="-9.583402e-02" y1="41.5168" x2="36" y2="41.5168">
			<stop  offset="0" style="stop-color:#231F20"/>
			<stop  offset="8.962709e-02" style="stop-color:#231F20"/>
			<stop  offset="1" style="stop-color:#231F20"/>
		</linearGradient>
		<path class="st0" d="M30.5,37.7c-0.2,0-0.4,0-0.7,0c0,0.3,0,0.5,0,0.8c0.2,0,0.4,0,0.7,0C30.5,38.2,30.5,38,30.5,37.7 M4.2,44.3
			c-0.2,0-0.3-0.1-0.4-0.2c-0.1-0.2-0.1-0.4-0.1-0.5c0-0.7,0-1.4,0-2.1l0,0c0.5,0,1,0,1.5,0c0-0.6,0-1.1,0-1.7c-0.5,0-1,0-1.5,0
			c0-0.7,0-1.5,0-2.2C2.8,37.7,2,38,1.1,38.3c0,0.5,0,1,0,1.5c-0.4,0-0.8,0-1.2,0c0,0.3,0,0.6,0,0.9c0,0.3,0,0.5,0,0.8
			c0.4,0,0.8,0,1.1,0c0,0.8,0,1.6,0,2.5c0,0.5,0.1,1.1,0.5,1.5c0.4,0.4,1,0.5,1.5,0.6c0.7,0.1,1.4,0,2.1-0.1c0-0.5-0.1-1-0.1-1.6
			C4.8,44.3,4.5,44.3,4.2,44.3 M19.7,44.3c-0.2,0-0.5,0-0.6-0.1c-0.2-0.1-0.2-0.3-0.2-0.5c0-0.7,0-1.5,0-2.2c0.5,0,1,0,1.5,0
			c0-0.6,0-1.1,0-1.7c-0.5,0-1,0-1.5,0c0-0.7,0-1.5,0-2.2c-0.8,0.2-1.6,0.5-2.5,0.8c0,0,0,0-0.1,0c0,0.5,0,1,0,1.5
			c-0.4,0-0.8,0-1.2,0c0,0,0,0.1,0,0.2c0,0.5,0,1,0,1.5c0.4,0,0.8,0,1.2,0c0,0.6,0,1.2,0,1.8c0,0.4,0,0.9,0.1,1.3
			c0.1,0.4,0.3,0.7,0.6,0.9c0.4,0.3,0.8,0.4,1.3,0.5c0.7,0.1,1.4,0,2.1-0.1c0-0.5-0.1-1.1-0.1-1.6C20.1,44.3,19.9,44.3,19.7,44.3
			 M12.4,40.3c-0.3,0.2-0.4,0.5-0.6,0.8c0-0.4,0-0.9-0.1-1.3c-0.8,0-1.6,0-2.4,0c0.1,0.9,0.1,1.8,0.1,2.7c0,1.1,0,2.2,0,3.4
			c0.9,0,1.7,0,2.6,0c0-0.7,0-1.5,0-2.2c0-0.5,0.1-1.1,0.3-1.6c0.1-0.3,0.3-0.4,0.6-0.5c0.4-0.2,0.9-0.3,1.4-0.2
			c0-0.5,0-1.1,0.1-1.6C13.6,39.6,12.9,39.8,12.4,40.3 M8.6,39.7c-0.9,0-1.7,0-2.6,0c0,2,0,4,0,6.1c0,0,0,0,0,0.1c0.9,0,1.7,0,2.6,0
			c0-1,0-2,0-3C8.6,41.8,8.6,40.8,8.6,39.7 M30.4,39.9c-0.2,0-0.4,0-0.5,0c0,2,0,3.9,0,5.9c0.2,0,0.4,0,0.5,0
			C30.4,43.9,30.4,41.9,30.4,39.9 M36,45.4c0-0.7,0-1.5,0-2.2c0-2.1,0-4.1,0-6.2c-0.2,0-0.4,0-0.5,0c0,1.4,0,2.7,0,4.1
			c-0.2-0.3-0.3-0.5-0.6-0.7c-0.4-0.4-1-0.6-1.5-0.5c-0.6,0-1.2,0.2-1.7,0.7c-0.5,0.5-0.8,1.3-0.8,2c-0.1,0.8,0,1.7,0.5,2.4
			c0.3,0.5,0.7,0.8,1.3,1c0.5,0.2,1.2,0.2,1.7-0.1c0.5-0.2,0.9-0.7,1.1-1.2c0,0.4,0,0.8,0.1,1.3c0.2,0,0.3,0,0.5,0
			C36,45.7,36,45.6,36,45.4 M35.3,43.9c-0.2,0.5-0.5,1.1-1,1.3c-0.5,0.3-1.1,0.3-1.6,0.1c-0.5-0.2-0.8-0.6-1-1
			c-0.3-0.6-0.3-1.4-0.3-2c0.1-0.6,0.3-1.2,0.7-1.6c0.2-0.2,0.5-0.4,0.9-0.4c0.5-0.1,1,0,1.4,0.3c0.5,0.4,0.8,1,0.9,1.6
			C35.5,42.8,35.5,43.4,35.3,43.9 M26.3,39.9c-0.7-0.3-1.5-0.3-2.3-0.3c-0.8,0.1-1.5,0.3-2.1,0.8c-0.5,0.4-0.8,1-1,1.6
			c-0.1,0.6-0.1,1.3,0.1,1.9c0.2,0.6,0.7,1.2,1.3,1.5c0.5,0.3,1.1,0.4,1.7,0.5c0.3,0,0.6,0,0.9,0c0.4,0,0.8-0.1,1.1-0.2
			c0.6-0.2,1.2-0.6,1.6-1.1c0.3-0.4,0.5-1,0.5-1.5c0.1-0.7,0-1.3-0.3-1.9C27.6,40.6,27,40.1,26.3,39.9 M25.5,43.6
			c-0.1,0.3-0.3,0.5-0.6,0.5c-0.3,0.1-0.7,0-1-0.2c-0.3-0.2-0.4-0.6-0.4-1c0-0.3,0-0.7,0.1-1c0.1-0.3,0.4-0.5,0.7-0.6
			c0.3-0.1,0.7,0,0.9,0.2c0.3,0.2,0.4,0.6,0.4,0.9C25.7,42.9,25.7,43.3,25.5,43.6 M28.5,45.1c0,0.3,0,0.5,0,0.8c0.2,0,0.5,0,0.7,0
			c0-0.3,0-0.5,0-0.8C29,45.1,28.7,45.1,28.5,45.1"/>
		<linearGradient id="SVGID_2_" gradientUnits="userSpaceOnUse" x1="5.9072" y1="38.2468" x2="8.5107" y2="38.2468">
			<stop  offset="0" style="stop-color:#231F20"/>
			<stop  offset="8.962709e-02" style="stop-color:#231F20"/>
			<stop  offset="1" style="stop-color:#231F20"/>
		</linearGradient>
		<path class="st1" d="M8.5,37.4c-0.9,0.3-1.7,0.5-2.6,0.8c0,0.3,0,0.5,0,0.8c0.9,0,1.7,0,2.6,0C8.5,38.5,8.5,38,8.5,37.4"/>
	</g>
	<linearGradient id="SVGID_3_" gradientUnits="userSpaceOnUse" x1="20.9456" y1="15.7677" x2="23.8919" y2="15.7677">
		<stop  offset="0" style="stop-color:#231F20"/>
		<stop  offset="8.962709e-02" style="stop-color:#231F20"/>
		<stop  offset="1" style="stop-color:#231F20"/>
	</linearGradient>
	<path class="st2" d="M22.4,16.2c-0.1,0.2-0.4,0.4-0.7,0.4c-0.4,0-0.7-0.3-0.8-0.6c-0.1-0.3,0-0.6,0.5-0.8c0.1,0,0.4-0.2,0.9-0.2
		c0.4,0,0.9,0.1,1.5,0.7c0.1,0.1,0.1,0.4,0,0.5c-0.1,0.2-0.3,0.2-0.5,0.2c-0.1,0-0.5-0.1-0.7-0.1C22.5,16.2,22.4,16.2,22.4,16.2z"/>
	<linearGradient id="SVGID_4_" gradientUnits="userSpaceOnUse" x1="21.3685" y1="17.8882" x2="22.5466" y2="17.8882">
		<stop  offset="0" style="stop-color:#231F20"/>
		<stop  offset="8.962709e-02" style="stop-color:#231F20"/>
		<stop  offset="1" style="stop-color:#231F20"/>
	</linearGradient>
	<path class="st3" d="M22.5,17.9c0,0.5-0.2,0.8-0.6,0.8c-0.4,0-0.6-0.3-0.6-0.8c0-0.5,0.2-0.8,0.6-0.8
		C22.3,17.1,22.5,17.4,22.5,17.9z"/>
	<linearGradient id="SVGID_5_" gradientUnits="userSpaceOnUse" x1="8.698" y1="11.8497" x2="17.0424" y2="11.8497">
		<stop  offset="0" style="stop-color:#231F20"/>
		<stop  offset="8.962709e-02" style="stop-color:#231F20"/>
		<stop  offset="1" style="stop-color:#231F20"/>
	</linearGradient>
	<path class="st4" d="M8.7,13.9c0.4-0.6,2.4-3.9,5-5.6c1,0.5,2.1,1.1,3.3,1.7c-3.1,1.2-6.8,4.1-8.2,5.2C8.8,14.9,8.7,14.4,8.7,13.9z
		"/>
	<linearGradient id="SVGID_6_" gradientUnits="userSpaceOnUse" x1="26.5155" y1="24.9127" x2="27.2371" y2="24.9127">
		<stop  offset="0" style="stop-color:#231F20"/>
		<stop  offset="8.962709e-02" style="stop-color:#231F20"/>
		<stop  offset="1" style="stop-color:#231F20"/>
	</linearGradient>
	<path class="st5" d="M26.6,24.1c0-0.1,0-0.1,0.1-0.2c0.4,0.5,0.5,1.3,0.6,1.8c-0.2-0.2-0.4-0.4-0.6-0.6
		C26.4,24.9,26.5,24.4,26.6,24.1z"/>
	<linearGradient id="SVGID_7_" gradientUnits="userSpaceOnUse" x1="27.2798" y1="23.4581" x2="28.9762" y2="23.4581">
		<stop  offset="0" style="stop-color:#231F20"/>
		<stop  offset="8.962709e-02" style="stop-color:#231F20"/>
		<stop  offset="1" style="stop-color:#231F20"/>
	</linearGradient>
	<path class="st6" d="M27.3,23.2C27.3,23.2,27.3,23.2,27.3,23.2c0.2,0,0.4,0,0.4-0.1c0.1-0.1,0.2-0.1,0.3-0.2c0.3,0.3,0.7,0.7,1,1.1
		c-0.4-0.1-0.9-0.2-1.3-0.4C27.5,23.6,27.4,23.4,27.3,23.2z"/>
	<linearGradient id="SVGID_8_" gradientUnits="userSpaceOnUse" x1="14.3612" y1="8.2413" x2="27.2489" y2="8.2413">
		<stop  offset="0" style="stop-color:#231F20"/>
		<stop  offset="8.962709e-02" style="stop-color:#231F20"/>
		<stop  offset="1" style="stop-color:#231F20"/>
	</linearGradient>
	<path class="st7" d="M17.8,2.7c4.6,3.6,8.8,9.5,9.4,10.4c0,0.3,0,0.5,0,0.8c-2-2.1-7.8-7.9-12.9-10.4C15.4,3,16.5,2.8,17.8,2.7z"/>
	<linearGradient id="SVGID_9_" gradientUnits="userSpaceOnUse" x1="19.3378" y1="7.1626" x2="27.1792" y2="7.1626">
		<stop  offset="0" style="stop-color:#231F20"/>
		<stop  offset="8.962709e-02" style="stop-color:#231F20"/>
		<stop  offset="1" style="stop-color:#231F20"/>
	</linearGradient>
	<path class="st8" d="M19.3,2.8c2.7,0.5,4.8,1.7,6.1,3.6c1.1,1.5,1.5,3.4,1.7,5.1C25.8,9.6,22.7,5.7,19.3,2.8z"/>
	<linearGradient id="SVGID_10_" gradientUnits="userSpaceOnUse" x1="10.5917" y1="9.6354" x2="27.1551" y2="9.6354">
		<stop  offset="0" style="stop-color:#231F20"/>
		<stop  offset="8.962709e-02" style="stop-color:#231F20"/>
		<stop  offset="1" style="stop-color:#231F20"/>
	</linearGradient>
	<path class="st9" d="M13.4,3.9c2.4,1.1,5.6,3.3,9.1,6.5c2.4,2.1,4.2,4.1,4.7,4.6c0,0.2,0,0.3,0,0.4C24.8,13.8,16,7.9,10.6,6.2
		C11.3,5.2,12.2,4.5,13.4,3.9z"/>
	<linearGradient id="SVGID_11_" gradientUnits="userSpaceOnUse" x1="8.6923" y1="9.6644" x2="12.8293" y2="9.6644">
		<stop  offset="0" style="stop-color:#231F20"/>
		<stop  offset="8.962709e-02" style="stop-color:#231F20"/>
		<stop  offset="1" style="stop-color:#231F20"/>
	</linearGradient>
	<path class="st10" d="M10.1,6.9c0.8,0.2,1.7,0.6,2.7,1c-1.8,1.3-3.3,3.2-4.1,4.4C8.8,10.6,9.1,8.6,10.1,6.9z"/>
	<linearGradient id="SVGID_12_" gradientUnits="userSpaceOnUse" x1="12.0045" y1="15.7677" x2="14.9519" y2="15.7677">
		<stop  offset="0" style="stop-color:#231F20"/>
		<stop  offset="8.962709e-02" style="stop-color:#231F20"/>
		<stop  offset="1" style="stop-color:#231F20"/>
	</linearGradient>
	<path class="st11" d="M14.1,16.6c-0.3,0-0.5-0.1-0.7-0.4c0,0-0.1,0-0.2,0c-0.3,0-0.7,0.1-0.7,0.1c-0.2,0.1-0.4,0-0.5-0.2
		c-0.1-0.2-0.1-0.4,0-0.5c0.5-0.6,1.1-0.7,1.5-0.7c0.5,0,0.8,0.2,0.9,0.2c0.4,0.2,0.5,0.6,0.5,0.8C14.9,16.3,14.5,16.6,14.1,16.6z"
		/>
	<linearGradient id="SVGID_13_" gradientUnits="userSpaceOnUse" x1="13.3512" y1="17.8882" x2="14.5258" y2="17.8882">
		<stop  offset="0" style="stop-color:#231F20"/>
		<stop  offset="8.962709e-02" style="stop-color:#231F20"/>
		<stop  offset="1" style="stop-color:#231F20"/>
	</linearGradient>
	<path class="st12" d="M14.5,17.9c0,0.5-0.2,0.8-0.6,0.8c-0.4,0-0.6-0.3-0.6-0.8c0-0.5,0.2-0.8,0.6-0.8
		C14.3,17.1,14.5,17.4,14.5,17.9z"/>
	<linearGradient id="SVGID_14_" gradientUnits="userSpaceOnUse" x1="11.5609" y1="22.4357" x2="24.3638" y2="22.4357">
		<stop  offset="0" style="stop-color:#231F20"/>
		<stop  offset="8.962709e-02" style="stop-color:#231F20"/>
		<stop  offset="1" style="stop-color:#231F20"/>
	</linearGradient>
	<path class="st13" d="M11.7,23.4c0.1-0.1,0.3-0.1,0.5,0c0,0,0.5,0.4,1.1,0.4c0.2,0,0.5-0.1,0.7-0.2c0.3-0.2,0.6-0.4,0.8-0.6
		c0.6-0.4,1.1-0.9,2-0.9c0.2,0,0.4,0,0.6,0.1c0,0-0.1-0.1-0.1-0.1c-0.1-0.1-0.1-0.3-0.1-0.4l0.2-1.7c0-0.2,0.2-0.4,0.5-0.4
		c0.2,0,0.4,0.2,0.4,0.5L18,21.5c0.1,0,0.2,0,0.4,0c0.2,0,0.4,0.2,0.4,0.4c0,0.1,0,0.2-0.1,0.2c0.1,0,0.3,0,0.4,0
		c0.9,0,1.5,0.4,2,0.9c0.3,0.2,0.5,0.4,0.8,0.6c0.2,0.1,0.4,0.2,0.7,0.2c0.6,0,1.1-0.4,1.1-0.4c0.1-0.1,0.3-0.1,0.5,0
		c0.1,0.1,0.2,0.3,0.1,0.5c-0.4,0.7-1.2,1.3-2.2,1.4h0c-0.2,0-0.3,0-0.5,0c-0.9,0-1.6-0.3-2.3-0.6c-0.5-0.2-1-0.5-1.4-1
		c-0.4,0.5-0.9,0.8-1.4,1c-0.7,0.3-1.4,0.6-2.2,0.6c-0.1,0-0.3,0-0.5,0h0c-1-0.1-1.8-0.7-2.2-1.4C11.5,23.7,11.6,23.5,11.7,23.4z"/>
	<linearGradient id="SVGID_15_" gradientUnits="userSpaceOnUse" x1="14.2924" y1="32.8182" x2="16.8401" y2="32.8182">
		<stop  offset="0" style="stop-color:#231F20"/>
		<stop  offset="8.962709e-02" style="stop-color:#231F20"/>
		<stop  offset="1" style="stop-color:#231F20"/>
	</linearGradient>
	<path class="st14" d="M14.3,32.8c0-0.2,0-0.4,0-0.6c0,0,0-0.1,0-0.1c0,0,0-0.1,0-0.1c0,0,0-0.1,0-0.1c0,0,0-0.1,0-0.1
		c0,0,0,0,0-0.1l2.4,0.8v0.8L14.4,34C14.4,33.7,14.3,33.3,14.3,32.8z"/>
	<linearGradient id="SVGID_16_" gradientUnits="userSpaceOnUse" x1="17.6701" y1="32.8183" x2="18.2568" y2="32.8183">
		<stop  offset="0" style="stop-color:#231F20"/>
		<stop  offset="8.962709e-02" style="stop-color:#231F20"/>
		<stop  offset="1" style="stop-color:#231F20"/>
	</linearGradient>
	<rect x="17.7" y="32.2" class="st15" width="0.6" height="1.1"/>
	<linearGradient id="SVGID_17_" gradientUnits="userSpaceOnUse" x1="19.0864" y1="32.8182" x2="21.6345" y2="32.8182">
		<stop  offset="0" style="stop-color:#231F20"/>
		<stop  offset="8.962709e-02" style="stop-color:#231F20"/>
		<stop  offset="1" style="stop-color:#231F20"/>
	</linearGradient>
	<path class="st16" d="M21.5,34l-2.4-0.8v-0.8l2.4-0.8c0,0,0,0.1,0,0.1c0,0,0,0,0,0.1c0,0,0,0.1,0,0.1c0,0,0,0.1,0,0.1
		c0,0.1,0,0.1,0,0.2c0,0.2,0,0.4,0,0.6C21.6,33.3,21.6,33.7,21.5,34z"/>
	<linearGradient id="SVGID_18_" gradientUnits="userSpaceOnUse" x1="1.8161" y1="16.0153" x2="34.0881" y2="16.0153">
		<stop  offset="0" style="stop-color:#231F20"/>
		<stop  offset="8.962709e-02" style="stop-color:#231F20"/>
		<stop  offset="1" style="stop-color:#231F20"/>
	</linearGradient>
	<path class="st17" d="M22.4,31.8C22.4,31.8,22.4,31.8,22.4,31.8c0,0,0-0.1,0-0.1c0,0,0-0.1,0-0.1c0,0,0-0.1,0-0.1
		c0-0.1,0-0.1,0-0.1c0,0,0-0.1,0-0.1c0,0,0-0.1,0-0.1c0,0,0-0.1,0-0.1c0,0,0,0,0-0.1c0,0,0-0.1,0-0.1c0-0.1-0.1-0.2-0.2-0.2
		c-0.1,0-0.2-0.1-0.3,0L20.9,31c0-1.1,1.1-2,3.1-3.7c0.3-0.3,0.6-0.5,1-0.8c0.3-0.3,0.6-0.6,0.9-0.9c0,0.1,0.1,0.1,0.1,0.2
		c0.5,0.6,1.4,1.3,1.4,1.3c0.1,0.1,0.2,0.1,0.2,0.1c0.1,0,0.1,0,0.2,0c0.1-0.1,0.2-0.2,0.2-0.3c0-0.1,0.1-1.1-0.2-2.2
		c0.9,0.3,2.1,0.5,2.1,0.5c0,0,0.1,0,0.1,0c0.1,0,0.3-0.1,0.4-0.2c0.1-0.1,0.1-0.3,0-0.5c-0.3-0.3-1.5-1.9-2.2-2.5
		c0-0.1,0-0.1,0-0.2C28,21.3,28,21,28.3,20.5c0-0.1,0.1-0.2,0.2-0.3c0.3-0.5,0.6-1.1,0.3-2c-0.1-0.4-0.4-0.6-0.6-0.6
		c-0.2-0.1-0.4,0-0.6,0c0.2-0.7,0.4-2.1,0.5-3.7c0.1-3.2-0.5-6-1.9-7.9c-1.7-2.4-4.4-3.8-8.2-4.1c0,0,0,0,0,0c0,0,0,0,0,0
		c0,0,0,0,0,0c0,0,0,0,0,0C16.1,2,14.5,2.4,13.2,3c0,0,0,0,0,0c-1.4,0.7-2.5,1.7-3.4,2.9C9.7,6,9.7,6.1,9.6,6.2c0,0,0,0.1-0.1,0.1
		c-1.2,2-1.8,4.6-1.7,7.6c0.1,1.6,0.3,3,0.5,3.7c-0.2-0.1-0.4-0.1-0.6,0c-0.2,0.1-0.5,0.2-0.6,0.6c-0.3,0.9,0.1,1.5,0.3,2
		c0.1,0.1,0.1,0.2,0.2,0.3c0.2,0.5,0.3,0.9,0.1,1.3c-0.2,0.5,0,1.1,0.4,1.3c0.1,0,0.2,0.1,0.4,0.1c0.1,0,0.3,0,0.4-0.1
		c0.4,1.5,1.1,2.6,2,3.4c0.3,0.3,0.7,0.6,1,0.8c2,1.6,3.1,2.6,3.1,3.7l-0.8-0.3c-0.1,0-0.2,0-0.3,0c0,0-0.1,0.1-0.1,0.1
		c0,0,0,0,0,0.1c0,0,0,0.1,0,0.1c0,0,0,0,0,0c0,0,0,0,0,0c0,0,0,0,0,0c0,0,0,0,0,0.1c0,0,0,0,0,0.1c0,0,0,0.1,0,0.1c0,0,0,0,0,0.1
		c0,0,0,0.1,0,0.2c0,0,0,0.1,0,0.1c0,0,0,0.1,0,0.1c0,0,0,0.1,0,0.1c0,0,0,0,0,0c-3.2-0.9-6.2-2.9-8.3-5.5C3,23.4,1.8,20,1.8,16.3
		C1.8,7.4,9.1,0.2,18,0.2c8.9,0,16.1,7.2,16.1,16.1C34.1,23.6,29.3,29.9,22.4,31.8z"/>
</g>
</svg>
