<svg id="Layer_1" data-name="Layer 1" xmlns="http://www.w3.org/2000/svg" viewBox="0 0 180 180"><defs><style>.cls-1{fill:#231f20;fill-rule:evenodd;}</style></defs><title>Icon</title><path class="cls-1" d="M106.51,36.68a9.07,9.07,0,1,1-9.07,9.07,9.07,9.07,0,0,1,9.07-9.07Z"/><path class="cls-1" d="M92.42,73h0a1.38,1.38,0,0,1,.5-1.06,1.62,1.62,0,0,1,1.1-.41h0a1.65,1.65,0,0,1,1.1.4,1.41,1.41,0,0,1,.5,1.07h0v65.25c0,.26,0,.52,0,.78a4.64,4.64,0,0,0,8.76,1.74,3.74,3.74,0,0,0,.36-.93,4.46,4.46,0,0,0,.13-.73c0-.22,0-.43,0-.66V103.37c0-1.63,2.14-1.92,2.93-.82l.07.09h0a1.34,1.34,0,0,1,.2.72h0v35.47A4.64,4.64,0,0,0,116,142a4.62,4.62,0,0,0,1.36-3.19V73h0a1.42,1.42,0,0,1,.49-1.06,1.62,1.62,0,0,1,1.1-.41h0a1.65,1.65,0,0,1,1.1.4,1.41,1.41,0,0,1,.5,1.07h0V93.09a3.42,3.42,0,0,0,1.91,2.85,3.39,3.39,0,0,0,4.85-3v-27a8.47,8.47,0,0,0-6.51-7.77A8.81,8.81,0,0,0,119,58H94a8.38,8.38,0,0,0-7.42,4.51A7.44,7.44,0,0,0,86,64.14a7.94,7.94,0,0,0-.28,1.63c0,.06,0,.13,0,.19h0c0,.28,0,.55,0,.83V92.9h0a3.38,3.38,0,0,0,6.39,1.54,3.29,3.29,0,0,0,.26-.68,3.58,3.58,0,0,0,.11-.73V73Z"/><path class="cls-1" d="M140.31,79.46a5.43,5.43,0,1,1-5.43,5.43,5.43,5.43,0,0,1,5.43-5.43Z"/><path class="cls-1" d="M131.88,101.21h0a.83.83,0,0,1,.29-.63,1,1,0,0,1,.67-.25h0a1,1,0,0,1,.66.24.87.87,0,0,1,.3.64h0v39.08c0,.15,0,.31,0,.46a2.83,2.83,0,0,0,.81,1.76,2.79,2.79,0,0,0,4.44-.71,2.72,2.72,0,0,0,.22-.56,3.21,3.21,0,0,0,.07-.43,2.71,2.71,0,0,0,0-.4v-21c0-1,1.29-1.14,1.76-.49l0,.06h0a.82.82,0,0,1,.12.43h0v21.24a2.78,2.78,0,0,0,4.74,1.88,2.74,2.74,0,0,0,.82-1.91V101.21h0a.84.84,0,0,1,.3-.63,1,1,0,0,1,.66-.25h0a1,1,0,0,1,.66.24.83.83,0,0,1,.3.64h0v12a2,2,0,0,0,1.15,1.7,2,2,0,0,0,2.3-.39,2,2,0,0,0,.6-1.4V97a5.06,5.06,0,0,0-3.89-4.65,5.18,5.18,0,0,0-1.11-.13H132.84a5,5,0,0,0-4.45,2.71,4.72,4.72,0,0,0-.38,1,4.46,4.46,0,0,0-.17,1s0,.07,0,.11h0v16.13h0a2,2,0,0,0,.59,1.43,2,2,0,0,0,3.23-.51,1.76,1.76,0,0,0,.16-.4,2.13,2.13,0,0,0,.07-.44v-12Z"/><path class="cls-1" d="M37.63,90a4.54,4.54,0,1,1-4.54,4.53A4.53,4.53,0,0,1,37.63,90Z"/><path class="cls-1" d="M30.58,108.16h0a.72.72,0,0,1,.25-.53.86.86,0,0,1,.55-.2h0a.83.83,0,0,1,.55.2.7.7,0,0,1,.24.53h0v32.63c0,.13,0,.26,0,.39a2.27,2.27,0,0,0,.68,1.46,2.31,2.31,0,0,0,3.7-.59,1.91,1.91,0,0,0,.18-.47c0-.11,0-.24.07-.36s0-.22,0-.33V123.34a.81.81,0,0,1,1.47-.41l0,0h0a.66.66,0,0,1,.11.36h0v17.74a2.32,2.32,0,0,0,4,1.56,2.3,2.3,0,0,0,.68-1.59V108.16h0a.69.69,0,0,1,.25-.53.84.84,0,0,1,.55-.2h0a.81.81,0,0,1,.55.2.71.71,0,0,1,.25.53h0v10a1.71,1.71,0,0,0,1,1.43,1.7,1.7,0,0,0,2.42-1.5v-13.5a4.23,4.23,0,0,0-3.26-3.88,4.06,4.06,0,0,0-.92-.11H31.38a4.2,4.2,0,0,0-3.71,2.26,4.6,4.6,0,0,0-.32.83,4.29,4.29,0,0,0-.14.81v.1h0c0,.14,0,.27,0,.41v13.06h0a1.7,1.7,0,0,0,3.2.77,3.42,3.42,0,0,0,.13-.34,1.5,1.5,0,0,0,0-.37v-10Z"/><path class="cls-1" d="M63.75,43.44a8.49,8.49,0,1,1-8.5,8.49,8.49,8.49,0,0,1,8.5-8.49Z"/><path class="cls-1" d="M50.55,77.46h0a1.33,1.33,0,0,1,.46-1,1.57,1.57,0,0,1,1-.39h0a1.61,1.61,0,0,1,1,.38,1.35,1.35,0,0,1,.46,1h0v61.12c0,.24,0,.49,0,.73a4.35,4.35,0,0,0,8.21,1.63,4.14,4.14,0,0,0,.34-.87,5.09,5.09,0,0,0,.12-.68c0-.21,0-.41,0-.62V105.9c0-1.53,2-1.8,2.74-.77a.35.35,0,0,1,.06.09h0a1.22,1.22,0,0,1,.2.67h0v33.22a4.35,4.35,0,0,0,8.69-.06V77.46h0a1.33,1.33,0,0,1,.46-1,1.57,1.57,0,0,1,1-.39h0a1.62,1.62,0,0,1,1,.38,1.35,1.35,0,0,1,.46,1h0V96.27a3.21,3.21,0,0,0,1.79,2.67,3.16,3.16,0,0,0,3.61-.62,3.09,3.09,0,0,0,.93-2.18V70.84a7.93,7.93,0,0,0-6.1-7.27,7.72,7.72,0,0,0-1.73-.2H52.05A7.85,7.85,0,0,0,45.1,67.6a8.33,8.33,0,0,0-.61,1.55,8.57,8.57,0,0,0-.25,1.53,1.09,1.09,0,0,0,0,.18h0c0,.26,0,.51,0,.77V96.09h0a3.17,3.17,0,0,0,6,1.44,3.45,3.45,0,0,0,.25-.63,3.19,3.19,0,0,0,.1-.69V77.46Z"/></svg>