<svg id="Layer_1" data-name="Layer 1" xmlns="http://www.w3.org/2000/svg" viewBox="0 0 180 180"><defs><style>.cls-1{fill:#231f20;fill-rule:evenodd;}</style></defs><title>Icon</title><path class="cls-1" d="M110.72,36.68a9.07,9.07,0,1,1-9.07,9.07,9.07,9.07,0,0,1,9.07-9.07Z"/><path class="cls-1" d="M96.63,73h0A1.4,1.4,0,0,1,97.13,72a1.64,1.64,0,0,1,1.1-.41h0a1.65,1.65,0,0,1,1.1.4,1.41,1.41,0,0,1,.5,1.07h0v65.25c0,.26,0,.52,0,.78a4.65,4.65,0,0,0,8.77,1.74,4.15,4.15,0,0,0,.35-.93,4.46,4.46,0,0,0,.13-.73c0-.22,0-.43,0-.66V103.37c0-1.63,2.14-1.92,2.93-.82l.07.09h0a1.34,1.34,0,0,1,.2.72h0v35.29a1.09,1.09,0,0,0,0,.18,4.64,4.64,0,0,0,9.28-.07c0-.06,0-.11,0-.18V73h0A1.42,1.42,0,0,1,122.1,72a1.65,1.65,0,0,1,1.11-.41h0a1.69,1.69,0,0,1,1.11.4,1.44,1.44,0,0,1,.49,1.07h0V93.09a3.42,3.42,0,0,0,1.91,2.85,3.38,3.38,0,0,0,3.86-.66,3.34,3.34,0,0,0,1-2.33v-27a8.45,8.45,0,0,0-6.5-7.77,8.88,8.88,0,0,0-1.85-.2h-25a8.39,8.39,0,0,0-7.42,4.51,8.55,8.55,0,0,0-.65,1.66,8.68,8.68,0,0,0-.28,1.63c0,.06,0,.13,0,.19h0c0,.28,0,.55,0,.83V92.9h0a3.39,3.39,0,0,0,6.39,1.54,3.29,3.29,0,0,0,.26-.68,3,3,0,0,0,.12-.73V73Z"/><path class="cls-1" d="M68,43.44a8.49,8.49,0,1,1-8.49,8.49A8.49,8.49,0,0,1,68,43.44Z"/><path class="cls-1" d="M54.76,77.46h0a1.34,1.34,0,0,1,.47-1,1.54,1.54,0,0,1,1-.39h0a1.59,1.59,0,0,1,1,.38,1.31,1.31,0,0,1,.46,1h0v61.12c0,.24,0,.49,0,.73A4.41,4.41,0,0,0,59,142.05,4.36,4.36,0,0,0,66,140.94a4.12,4.12,0,0,0,.33-.87,3.87,3.87,0,0,0,.12-.68c0-.21,0-.41,0-.62V105.9c0-1.53,2-1.8,2.75-.77l.06.09h0a1.3,1.3,0,0,1,.19.67h0v33.22a4.34,4.34,0,0,0,7.41,2.93,4.3,4.3,0,0,0,1.28-3V77.46h0a1.3,1.3,0,0,1,.47-1,1.53,1.53,0,0,1,1-.39h0a1.59,1.59,0,0,1,1,.38,1.35,1.35,0,0,1,.46,1h0V96.1a1,1,0,0,0,0,.17,3.17,3.17,0,0,0,6.33-.13V70.84a7.86,7.86,0,0,0-7.83-7.47H56.26a7.84,7.84,0,0,0-6.94,4.23,7.14,7.14,0,0,0-.61,1.55,7.77,7.77,0,0,0-.26,1.53,1.09,1.09,0,0,0,0,.18h0c0,.26,0,.51,0,.77V96.09h0a3.17,3.17,0,0,0,6,1.44,2.85,2.85,0,0,0,.25-.63,3.19,3.19,0,0,0,.1-.69V77.46Z"/></svg>