<svg id="Layer_1" data-name="Layer 1" xmlns="http://www.w3.org/2000/svg" viewBox="0 0 180 180"><defs><style>.cls-1{fill:#231f20;fill-rule:evenodd;}</style></defs><title>Icon</title><path class="cls-1" d="M98,36.68a9.07,9.07,0,1,1-9.07,9.07A9.07,9.07,0,0,1,98,36.68Z"/><path class="cls-1" d="M83.91,73h0A1.4,1.4,0,0,1,84.41,72a1.64,1.64,0,0,1,1.1-.41h0a1.65,1.65,0,0,1,1.1.4,1.41,1.41,0,0,1,.5,1.07h0v65.25c0,.26,0,.52,0,.78a4.65,4.65,0,0,0,8.77,1.74,4.15,4.15,0,0,0,.35-.93,4.46,4.46,0,0,0,.13-.73c0-.22,0-.43,0-.66V103.37c0-1.63,2.14-1.92,2.93-.82l.07.09h0a1.34,1.34,0,0,1,.2.72h0v35.47a4.65,4.65,0,0,0,9.29-.07c0-.06,0-.11,0-.18V73h0a1.42,1.42,0,0,1,.49-1.06,1.65,1.65,0,0,1,1.11-.41h0a1.69,1.69,0,0,1,1.11.4,1.44,1.44,0,0,1,.49,1.07h0V93.09A3.42,3.42,0,0,0,114,95.94a3.38,3.38,0,0,0,3.86-.66,3.34,3.34,0,0,0,1-2.33v-27a8.45,8.45,0,0,0-6.5-7.77,8.88,8.88,0,0,0-1.85-.2h-25a8.39,8.39,0,0,0-7.42,4.51,8.55,8.55,0,0,0-.65,1.66,7.94,7.94,0,0,0-.28,1.63c0,.06,0,.13,0,.19h0c0,.28,0,.55,0,.83V92.9h0a3.39,3.39,0,0,0,6.39,1.54,3.29,3.29,0,0,0,.26-.68,2.58,2.58,0,0,0,.11-.73V73Z"/><path class="cls-1" d="M131.81,79.46a5.43,5.43,0,1,1-5.43,5.43,5.44,5.44,0,0,1,5.43-5.43Z"/><path class="cls-1" d="M123.37,101.21h0a.81.81,0,0,1,.3-.63,1,1,0,0,1,.66-.25h0a1,1,0,0,1,.66.24.87.87,0,0,1,.3.64h0v39.08a3.53,3.53,0,0,0,0,.46,2.82,2.82,0,0,0,.8,1.76,2.78,2.78,0,0,0,4.44-.71,2.25,2.25,0,0,0,.22-.56c0-.14.06-.29.08-.43s0-.27,0-.4v-21a1,1,0,0,1,1.75-.49.21.21,0,0,1,0,.06h0a.82.82,0,0,1,.12.43h0v21.14a.34.34,0,0,0,0,.1,2.78,2.78,0,0,0,5.55,0V101.21h0a.84.84,0,0,1,.3-.63,1,1,0,0,1,.66-.25h0a1,1,0,0,1,.66.24.86.86,0,0,1,.29.64h0v12a2,2,0,0,0,1.15,1.7,2,2,0,0,0,2.9-1.79V97a5.07,5.07,0,0,0-3.9-4.65,5.18,5.18,0,0,0-1.11-.13h-15a5,5,0,0,0-4.44,2.71,4.25,4.25,0,0,0-.39,1,5.14,5.14,0,0,0-.17,1V97h0c0,.17,0,.33,0,.5v15.63h0a2,2,0,0,0,3.83.92,2.37,2.37,0,0,0,.15-.4,2.13,2.13,0,0,0,.07-.44v-12Z"/><path class="cls-1" d="M55.24,43.44a8.49,8.49,0,1,1-8.5,8.49,8.49,8.49,0,0,1,8.5-8.49Z"/><path class="cls-1" d="M42,77.46h0a1.34,1.34,0,0,1,.47-1,1.53,1.53,0,0,1,1-.39h0a1.59,1.59,0,0,1,1,.38,1.31,1.31,0,0,1,.46,1h0v61.12c0,.24,0,.49,0,.73a4.41,4.41,0,0,0,1.27,2.74,4.36,4.36,0,0,0,7-1.11,4.12,4.12,0,0,0,.33-.87,3.87,3.87,0,0,0,.12-.68c0-.21,0-.41,0-.62V105.9c0-1.53,2-1.8,2.75-.77l.06.09h0a1.3,1.3,0,0,1,.19.67h0v33.22a4.34,4.34,0,0,0,7.41,2.93,4.3,4.3,0,0,0,1.28-3V77.46h0a1.3,1.3,0,0,1,.47-1,1.53,1.53,0,0,1,1-.39h0a1.59,1.59,0,0,1,1,.38,1.35,1.35,0,0,1,.46,1h0V96.1a1,1,0,0,0,0,.17,3.17,3.17,0,0,0,6.33-.13V70.84a7.86,7.86,0,0,0-7.83-7.47H43.54A7.83,7.83,0,0,0,36.6,67.6,7.14,7.14,0,0,0,36,69.15a7.77,7.77,0,0,0-.26,1.53,1.09,1.09,0,0,0,0,.18h0c0,.26,0,.51,0,.77V96.09h0a3.17,3.17,0,0,0,6,1.44,2.85,2.85,0,0,0,.25-.63,3.19,3.19,0,0,0,.1-.69V77.46Z"/></svg>