<svg id="Layer_1" data-name="Layer 1" xmlns="http://www.w3.org/2000/svg" viewBox="0 0 180 180"><defs><style>.cls-1{fill:#231f20;fill-rule:evenodd;}</style></defs><title>Icon</title><path class="cls-1" d="M77.28,36.68a9.07,9.07,0,1,1-9.07,9.07,9.07,9.07,0,0,1,9.07-9.07Z"/><path class="cls-1" d="M63.19,73h0a1.41,1.41,0,0,1,.5-1.06,1.62,1.62,0,0,1,1.1-.41h0a1.65,1.65,0,0,1,1.1.4A1.41,1.41,0,0,1,66.4,73h0v65.25c0,.26,0,.52,0,.78a4.64,4.64,0,0,0,8.76,1.74,3.74,3.74,0,0,0,.36-.93,4.46,4.46,0,0,0,.13-.73c0-.22,0-.43,0-.66V103.37c0-1.63,2.14-1.92,2.93-.82l.07.09h0a1.34,1.34,0,0,1,.2.72h0v35.47A4.64,4.64,0,0,0,86.8,142a4.62,4.62,0,0,0,1.36-3.19V73h0A1.42,1.42,0,0,1,88.66,72a1.62,1.62,0,0,1,1.1-.41h0a1.65,1.65,0,0,1,1.1.4,1.41,1.41,0,0,1,.5,1.07h0V93.09a3.42,3.42,0,0,0,1.91,2.85,3.38,3.38,0,0,0,3.86-.66,3.34,3.34,0,0,0,1-2.33v-27a8.47,8.47,0,0,0-6.51-7.77,8.79,8.79,0,0,0-1.84-.2h-25a8.39,8.39,0,0,0-7.42,4.51,7.44,7.44,0,0,0-.65,1.66,7.94,7.94,0,0,0-.28,1.63c0,.06,0,.13,0,.19h0c0,.28,0,.55,0,.83V92.9h0a3.38,3.38,0,0,0,6.39,1.54,3.29,3.29,0,0,0,.26-.68,3.58,3.58,0,0,0,.11-.73V73Z"/><path class="cls-1" d="M111.09,79.46a5.43,5.43,0,1,1-5.44,5.43,5.43,5.43,0,0,1,5.44-5.43Z"/><path class="cls-1" d="M102.65,101.21h0a.83.83,0,0,1,.29-.63,1,1,0,0,1,.67-.25h0a1,1,0,0,1,.66.24.87.87,0,0,1,.3.64h0v39.08c0,.15,0,.31,0,.46a2.83,2.83,0,0,0,.81,1.76,2.79,2.79,0,0,0,4.44-.71,2.72,2.72,0,0,0,.22-.56,3.21,3.21,0,0,0,.07-.43,2.71,2.71,0,0,0,0-.4v-21c0-1,1.29-1.14,1.76-.49l0,.06h0a.82.82,0,0,1,.12.43h0v21.24a2.78,2.78,0,0,0,4.74,1.88,2.74,2.74,0,0,0,.82-1.91V101.21h0a.84.84,0,0,1,.3-.63,1,1,0,0,1,.66-.25h0a1,1,0,0,1,.66.24.83.83,0,0,1,.3.64h0v12a2,2,0,0,0,1.15,1.7,2,2,0,0,0,2.9-1.79V97a5.06,5.06,0,0,0-3.89-4.65,5.18,5.18,0,0,0-1.11-.13h-15a5,5,0,0,0-4.45,2.71,4.72,4.72,0,0,0-.38,1,5.14,5.14,0,0,0-.17,1,.45.45,0,0,1,0,.11h0v16.13h0a2,2,0,0,0,.59,1.43,2,2,0,0,0,3.23-.51,1.76,1.76,0,0,0,.16-.4,2.13,2.13,0,0,0,.07-.44v-12Z"/></svg>