<svg id="Layer_1" data-name="Layer 1" xmlns="http://www.w3.org/2000/svg" viewBox="0 0 180 180"><defs><style>.cls-1{fill:#231f20;fill-rule:evenodd;}</style></defs><title>Icon</title><path class="cls-1" d="M90,36.68a9.07,9.07,0,1,1-9.07,9.07A9.07,9.07,0,0,1,90,36.68Z"/><path class="cls-1" d="M75.91,73h0a1.45,1.45,0,0,1,.5-1.06,1.62,1.62,0,0,1,1.1-.41h0a1.65,1.65,0,0,1,1.1.4,1.41,1.41,0,0,1,.5,1.07h0v65.25c0,.26,0,.52,0,.78a4.64,4.64,0,0,0,8.76,1.74,3.74,3.74,0,0,0,.36-.93,4.46,4.46,0,0,0,.13-.73c0-.22,0-.43,0-.66V103.37c0-1.63,2.14-1.92,2.93-.82l.07.09h0a1.34,1.34,0,0,1,.2.72h0v35.47A4.64,4.64,0,0,0,99.52,142a4.62,4.62,0,0,0,1.36-3.19V73h0a1.42,1.42,0,0,1,.49-1.06,1.64,1.64,0,0,1,1.1-.41h0a1.65,1.65,0,0,1,1.1.4,1.41,1.41,0,0,1,.5,1.07h0V93.09A3.42,3.42,0,0,0,106,95.94a3.38,3.38,0,0,0,3.86-.66,3.34,3.34,0,0,0,1-2.33v-27a8.46,8.46,0,0,0-6.5-7.77,9,9,0,0,0-1.85-.2h-25a8.39,8.39,0,0,0-7.42,4.51,7.44,7.44,0,0,0-.65,1.66,7.94,7.94,0,0,0-.28,1.63c0,.06,0,.13,0,.19h0c0,.28,0,.55,0,.83V92.9h0a3.38,3.38,0,0,0,6.39,1.54,3.29,3.29,0,0,0,.26-.68,3.58,3.58,0,0,0,.11-.73V73Z"/></svg>