<svg id="Layer_1" data-name="Layer 1" xmlns="http://www.w3.org/2000/svg" viewBox="0 0 180 180"><defs><style>.cls-1{fill:#231f20;fill-rule:evenodd;}</style></defs><title>Icon</title><path class="cls-1" d="M95.16,36.68a9.07,9.07,0,1,1-9.07,9.07,9.07,9.07,0,0,1,9.07-9.07Z"/><path class="cls-1" d="M81.07,73h0A1.4,1.4,0,0,1,81.56,72a1.65,1.65,0,0,1,1.11-.41h0a1.65,1.65,0,0,1,1.1.4,1.41,1.41,0,0,1,.5,1.07h0v65.25c0,.26,0,.52,0,.78a4.65,4.65,0,0,0,9.13.81,4.45,4.45,0,0,0,.12-.73c0-.22,0-.43,0-.66V103.37c0-1.63,2.15-1.92,2.94-.82a.7.7,0,0,1,.06.09h0a1.44,1.44,0,0,1,.21.72h0v35.47a4.63,4.63,0,0,0,7.91,3.12,4.63,4.63,0,0,0,1.37-3.19V73h0a1.42,1.42,0,0,1,.49-1.06,1.65,1.65,0,0,1,1.11-.41h0a1.69,1.69,0,0,1,1.11.4,1.44,1.44,0,0,1,.49,1.07h0v19.9a1.09,1.09,0,0,0,0,.18A3.38,3.38,0,0,0,115,95.28,3.34,3.34,0,0,0,116,93v-27a8.45,8.45,0,0,0-6.5-7.77,8.88,8.88,0,0,0-1.85-.2h-25a8.4,8.4,0,0,0-7.42,4.51,8.55,8.55,0,0,0-.65,1.66,8.67,8.67,0,0,0-.27,1.63c0,.06,0,.13,0,.19h0c0,.28,0,.55,0,.83V92.9h0a3.39,3.39,0,0,0,6.39,1.54,4,4,0,0,0,.27-.68,3.58,3.58,0,0,0,.11-.73V73Z"/><path class="cls-1" d="M129,79.46a5.43,5.43,0,1,1-5.43,5.43A5.43,5.43,0,0,1,129,79.46Z"/><path class="cls-1" d="M120.52,101.21h0a.84.84,0,0,1,.3-.63,1,1,0,0,1,.66-.25h0a1,1,0,0,1,.66.24.83.83,0,0,1,.3.64h0v39.08c0,.15,0,.31,0,.46a2.78,2.78,0,0,0,5.25,1.05,2.69,2.69,0,0,0,.21-.56,3.25,3.25,0,0,0,.08-.43c0-.14,0-.27,0-.4v-21c0-1,1.28-1.14,1.76-.49l0,.06h0a.83.83,0,0,1,.13.43h0v21.24a2.78,2.78,0,0,0,4.74,1.88,2.83,2.83,0,0,0,.82-1.91s0-.07,0-.11V101.21h0a.83.83,0,0,1,.29-.63,1,1,0,0,1,.66-.25h0a1,1,0,0,1,.66.24.86.86,0,0,1,.29.64h0v11.92a.4.4,0,0,0,0,.11,2,2,0,0,0,3.45,1.31,2,2,0,0,0,.59-1.4V97a5,5,0,0,0-5-4.78h-15A5,5,0,0,0,117,94.91a4.74,4.74,0,0,0-.39,1,4.46,4.46,0,0,0-.16,1,.37.37,0,0,0,0,.11h0c0,.17,0,.33,0,.5v15.63h0a2,2,0,0,0,3.83.92,1.74,1.74,0,0,0,.15-.4,1.62,1.62,0,0,0,.07-.44v-12Z"/><path class="cls-1" d="M153.73,90a4.54,4.54,0,1,1-4.53,4.53A4.53,4.53,0,0,1,153.73,90Z"/><path class="cls-1" d="M146.69,108.16h0a.71.71,0,0,1,.24-.53.89.89,0,0,1,.56-.2h0a.81.81,0,0,1,.55.2.71.71,0,0,1,.25.53h0v33a2.37,2.37,0,0,0,.68,1.46,2.32,2.32,0,0,0,3.71-.59,3.27,3.27,0,0,0,.18-.47,2.08,2.08,0,0,0,.06-.36c0-.11,0-.22,0-.33V123.34a.81.81,0,0,1,1.47-.41l0,0h0a.75.75,0,0,1,.1.36h0v17.74a2.32,2.32,0,0,0,4,1.56,2.3,2.3,0,0,0,.68-1.59V108.16h0a.72.72,0,0,1,.25-.53.86.86,0,0,1,.55-.2h0a.83.83,0,0,1,.55.2.7.7,0,0,1,.24.53h0v10a.28.28,0,0,0,0,.09,1.69,1.69,0,0,0,2.88,1.1,1.65,1.65,0,0,0,.49-1.17v-13.5a4.22,4.22,0,0,0-3.25-3.88,4.15,4.15,0,0,0-.93-.11H147.49a4.19,4.19,0,0,0-3.71,2.26,4,4,0,0,0-.33.83,4.28,4.28,0,0,0-.13.81.34.34,0,0,0,0,.1h0v13.47h0a1.71,1.71,0,0,0,.49,1.19,1.69,1.69,0,0,0,2.7-.42,1.4,1.4,0,0,0,.13-.34,2.2,2.2,0,0,0,.06-.37v-10Z"/><path class="cls-1" d="M26.27,90a4.54,4.54,0,1,1-4.53,4.53A4.53,4.53,0,0,1,26.27,90Z"/><path class="cls-1" d="M19.23,108.16h0a.71.71,0,0,1,.24-.53.89.89,0,0,1,.56-.2h0a.81.81,0,0,1,.55.2.71.71,0,0,1,.25.53h0v33a2.37,2.37,0,0,0,.68,1.46,2.32,2.32,0,0,0,3.71-.59,3.27,3.27,0,0,0,.18-.47,2.08,2.08,0,0,0,.06-.36c0-.11,0-.22,0-.33V123.34a.81.81,0,0,1,1.47-.41l0,0h0a.75.75,0,0,1,.1.36h0v17.74a2.32,2.32,0,0,0,4,1.56,2.3,2.3,0,0,0,.68-1.59V108.16h0a.72.72,0,0,1,.25-.53.86.86,0,0,1,.55-.2h0a.83.83,0,0,1,.56.2.7.7,0,0,1,.24.53h0v10a.28.28,0,0,0,0,.09,1.69,1.69,0,0,0,2.88,1.1,1.65,1.65,0,0,0,.49-1.17v-13.5a4.21,4.21,0,0,0-4.18-4H20a4.19,4.19,0,0,0-3.71,2.26,4,4,0,0,0-.33.83,4.28,4.28,0,0,0-.13.81.34.34,0,0,0,0,.1h0v13.47h0a1.71,1.71,0,0,0,.49,1.19,1.69,1.69,0,0,0,2.7-.42,2,2,0,0,0,.13-.34,2.2,2.2,0,0,0,.06-.37v-10Z"/><path class="cls-1" d="M52.39,43.44a8.49,8.49,0,1,1-8.49,8.49,8.49,8.49,0,0,1,8.49-8.49Z"/><path class="cls-1" d="M39.19,77.46h0a1.29,1.29,0,0,1,.46-1,1.54,1.54,0,0,1,1-.39h0a1.57,1.57,0,0,1,1,.38,1.36,1.36,0,0,1,.47,1h0v61.12c0,.24,0,.49,0,.73a4.4,4.4,0,0,0,1.26,2.74,4.36,4.36,0,0,0,7-1.11,4.12,4.12,0,0,0,.33-.87,3.87,3.87,0,0,0,.12-.68c0-.21,0-.41,0-.62V105.9c0-1.53,2-1.8,2.75-.77l.06.09h0a1.3,1.3,0,0,1,.19.67h0v33.22a4.35,4.35,0,0,0,8.7-.06c0-.06,0-.11,0-.17V77.46h0a1.29,1.29,0,0,1,.46-1,1.54,1.54,0,0,1,1-.39h0a1.57,1.57,0,0,1,1,.38,1.31,1.31,0,0,1,.46,1h0V96.27a3.17,3.17,0,0,0,6.33-.13V70.84a7.86,7.86,0,0,0-7.83-7.47H40.7a7.85,7.85,0,0,0-7,4.23,7.69,7.69,0,0,0-.61,1.55,7.77,7.77,0,0,0-.26,1.53c0,.06,0,.12,0,.18h0c0,.26,0,.51,0,.77V96.09h0a3.17,3.17,0,0,0,6,1.44,3.41,3.41,0,0,0,.24-.63,3.2,3.2,0,0,0,.11-.69V77.46Z"/></svg>